<svg width="156" height="52" viewBox="0 0 156 52" fill="none" xmlns="http://www.w3.org/2000/svg">
<path fill-rule="evenodd" clip-rule="evenodd" d="M156.001 28.6308C156.001 29.3227 155.426 29.8953 154.732 29.8953H152.218C151.524 29.8953 150.95 29.3227 150.95 28.6308V17.3463C150.95 13.1951 147.575 9.83122 143.409 9.83122C139.244 9.83122 135.869 13.1951 135.869 17.3463V28.6308C135.869 29.3227 135.295 29.8953 134.6 29.8953H132.087C131.393 29.8953 130.818 29.3227 130.818 28.6308V17.3463C130.818 10.4277 136.444 4.82117 143.385 4.82117C150.327 4.82117 155.953 10.4277 155.953 17.3463V28.6308H156.001Z" fill="#5A6B80"/>
<path fill-rule="evenodd" clip-rule="evenodd" d="M89.5984 9.83129C85.4333 9.83129 82.0581 13.1952 82.0581 17.3464C82.0581 21.4976 85.4333 24.8614 89.5984 24.8614H95.8939C96.5881 24.8614 97.1626 25.434 97.1626 26.1259V28.6309C97.1626 29.3228 96.5881 29.8954 95.8939 29.8954H89.5984C82.6565 29.8954 77.0312 24.2889 77.0312 17.3702C77.0312 10.4516 82.6565 4.84509 89.5984 4.84509H95.8939C96.5881 4.84509 97.1626 5.41767 97.1626 6.10953V8.61456C97.1626 9.30643 96.5881 9.879 95.8939 9.879H89.5984V9.83129Z" fill="#5A6B80"/>
<path fill-rule="evenodd" clip-rule="evenodd" d="M72.0039 6.08561C72.0039 5.39374 71.4294 4.82117 70.7352 4.82117H68.2218C67.5276 4.82117 66.9531 5.39374 66.9531 6.08561V28.6308C66.9531 29.3227 67.5276 29.8953 68.2218 29.8953H70.7352C71.4294 29.8953 72.0039 29.3227 72.0039 28.6308V6.08561Z" fill="#5A6B80"/>
<path d="M113.248 4.7019C106.21 4.7019 100.489 10.4038 100.489 17.4179C100.489 24.432 106.21 30.1339 113.248 30.1339C120.285 30.1339 126.007 24.432 126.007 17.4179C126.007 10.4038 120.285 4.7019 113.248 4.7019ZM114.062 25.3624C108.987 25.8634 104.75 21.6407 105.253 16.5829C105.636 12.8373 108.652 9.80739 112.41 9.44953C117.485 8.94852 121.722 13.1713 121.219 18.229C120.86 21.9747 117.82 24.9807 114.062 25.3624Z" fill="#5A6B80"/>
<path d="M26.283 4.67603C14.2904 4.67603 4.5957 14.3621 4.5957 26.2908C4.5957 38.2195 14.3143 47.9056 26.283 47.9056C38.2517 47.9056 47.9703 38.2195 47.9703 26.2908C47.9703 14.3621 38.2756 4.67603 26.283 4.67603ZM27.7432 40.486C18.7188 41.3687 11.1785 33.8775 12.0642 24.8594C12.7344 18.2032 18.1443 12.8114 24.8228 12.1434C33.8472 11.2607 41.3875 18.7519 40.5018 27.77C39.8316 34.4262 34.4217 39.818 27.7432 40.486Z" fill="url(#paint0_linear_4_947)"/>
<path d="M4.33267 51.8898C6.72554 51.8898 8.66534 49.9565 8.66534 47.5716C8.66534 45.1867 6.72554 43.2534 4.33267 43.2534C1.9398 43.2534 0 45.1867 0 47.5716C0 49.9565 1.9398 51.8898 4.33267 51.8898Z" fill="url(#paint1_linear_4_947)"/>
<path d="M47.7311 8.63638C50.124 8.63638 52.0638 6.70306 52.0638 4.31819C52.0638 1.93332 50.124 0 47.7311 0C45.3382 0 43.3984 1.93332 43.3984 4.31819C43.3984 6.70306 45.3382 8.63638 47.7311 8.63638Z" fill="url(#paint2_linear_4_947)"/>
<path d="M68.8277 38.4257V42.201H74.2775V43.5406H68.8277V47.9249H67.2637V37.0861H74.9374V38.4257H68.8277Z" fill="#19B7CB"/>
<path d="M77.9679 47.4865C77.3081 47.1211 76.7949 46.634 76.4283 46.0007C76.0617 45.3674 75.8662 44.6367 75.8662 43.8329C75.8662 43.0292 76.0373 42.2985 76.4283 41.6652C76.7949 41.0319 77.3081 40.5448 77.9679 40.1794C78.6278 39.8141 79.3609 39.6436 80.1674 39.6436C80.9983 39.6436 81.7315 39.8141 82.3669 40.1794C83.0023 40.5448 83.5155 41.0319 83.882 41.6652C84.2486 42.2985 84.4441 43.0292 84.4441 43.8329C84.4441 44.6367 84.2731 45.3431 83.882 46.0007C83.5155 46.634 83.0023 47.1455 82.3669 47.4865C81.7315 47.8518 80.9983 48.0223 80.1674 48.0223C79.3609 48.0223 78.6278 47.8518 77.9679 47.4865ZM81.6093 46.3661C82.0247 46.1225 82.3669 45.7815 82.5868 45.3431C82.8312 44.9046 82.9534 44.3931 82.9534 43.8329C82.9534 43.2727 82.8312 42.7612 82.5868 42.3228C82.3424 41.8844 82.0247 41.5434 81.6093 41.2998C81.1938 41.0563 80.705 40.9345 80.1918 40.9345C79.6542 40.9345 79.1899 41.0563 78.7744 41.2998C78.3589 41.5434 78.0168 41.8844 77.7724 42.3228C77.528 42.7612 77.4058 43.2727 77.4058 43.8329C77.4058 44.3931 77.528 44.9046 77.7724 45.3431C78.0168 45.7815 78.3589 46.1225 78.7744 46.3661C79.1899 46.6096 79.6786 46.7314 80.1918 46.7314C80.705 46.7314 81.1694 46.6096 81.6093 46.3661Z" fill="#19B7CB"/>
<path d="M94.1943 39.7167V47.9249H92.7769V46.6827C92.4836 47.0968 92.0682 47.4378 91.5794 47.657C91.0906 47.9006 90.553 47.998 89.9664 47.998C88.8667 47.998 88.0114 47.7057 87.376 47.0968C86.7406 46.4879 86.4229 45.611 86.4229 44.4175V39.7167H87.9136V44.2714C87.9136 45.0752 88.1091 45.6598 88.5001 46.0738C88.8911 46.4879 89.4288 46.6827 90.1375 46.6827C90.9195 46.6827 91.5549 46.4392 91.9948 45.9764C92.4592 45.4893 92.6791 44.8316 92.6791 43.9548V39.7167H94.1943Z" fill="#19B7CB"/>
<path d="M103.922 40.5448C104.533 41.1537 104.851 42.0305 104.851 43.1997V47.9249H103.36V43.3702C103.36 42.5664 103.164 41.9818 102.773 41.5677C102.382 41.1537 101.845 40.9588 101.136 40.9588C100.329 40.9588 99.6941 41.2024 99.2297 41.6652C98.7654 42.128 98.521 42.8099 98.521 43.6868V47.9249H97.0303V39.7166H98.4477V40.9588C98.741 40.5448 99.1564 40.2038 99.6696 39.9846C100.183 39.7653 100.769 39.6436 101.429 39.6436C102.48 39.6436 103.311 39.9358 103.922 40.5448Z" fill="#19B7CB"/>
<path d="M115.432 36.4285V47.9249H113.991V46.634C113.648 47.0968 113.233 47.4378 112.744 47.6813C112.231 47.9249 111.669 48.0467 111.058 48.0467C110.251 48.0467 109.543 47.8762 108.907 47.5108C108.272 47.1455 107.783 46.6583 107.417 46.0251C107.05 45.3918 106.879 44.6611 106.879 43.833C106.879 43.0048 107.05 42.2741 107.417 41.6408C107.783 41.0076 108.272 40.5204 108.907 40.1794C109.543 39.8384 110.251 39.6436 111.058 39.6436C111.644 39.6436 112.182 39.7654 112.695 39.9846C113.184 40.2038 113.6 40.5448 113.942 40.9588V36.4285H115.432ZM112.598 46.3661C113.013 46.1225 113.355 45.7815 113.6 45.3431C113.844 44.9047 113.966 44.3932 113.966 43.833C113.966 43.2727 113.844 42.7613 113.6 42.3228C113.355 41.8844 113.037 41.5434 112.598 41.2998C112.182 41.0563 111.693 40.9345 111.18 40.9345C110.642 40.9345 110.178 41.0563 109.763 41.2998C109.347 41.5434 109.005 41.8844 108.761 42.3228C108.516 42.7613 108.394 43.2727 108.394 43.833C108.394 44.3932 108.516 44.9047 108.761 45.3431C109.005 45.7815 109.347 46.1225 109.763 46.3661C110.178 46.6096 110.667 46.7314 111.18 46.7314C111.693 46.7314 112.182 46.6096 112.598 46.3661Z" fill="#19B7CB"/>
<path d="M123.864 40.4717C124.475 41.0319 124.768 41.86 124.768 42.9561V47.9005H123.351V46.8045C123.106 47.1942 122.74 47.4865 122.275 47.6813C121.811 47.8762 121.273 47.9736 120.638 47.9736C119.709 47.9736 118.976 47.7544 118.414 47.316C117.852 46.8775 117.583 46.293 117.583 45.5623C117.583 44.8316 117.852 44.247 118.365 43.8086C118.903 43.3702 119.734 43.1509 120.882 43.1509H123.253V42.8587C123.253 42.2254 123.057 41.7139 122.691 41.3972C122.324 41.0563 121.762 40.8858 121.053 40.8858C120.565 40.8858 120.1 40.9588 119.611 41.1293C119.123 41.2998 118.756 41.4947 118.438 41.7626L117.852 40.6909C118.267 40.3499 118.781 40.082 119.367 39.9115C119.954 39.741 120.589 39.6436 121.249 39.6436C122.397 39.6436 123.253 39.9358 123.864 40.4717ZM122.373 46.4878C122.788 46.2443 123.082 45.8789 123.277 45.4161V44.2714H120.98C119.709 44.2714 119.074 44.6854 119.074 45.5379C119.074 45.952 119.245 46.2686 119.563 46.5122C119.88 46.7558 120.32 46.8775 120.907 46.8775C121.469 46.8775 121.982 46.7558 122.373 46.4878Z" fill="#19B7CB"/>
<path d="M132.173 47.4377C131.953 47.6326 131.684 47.7544 131.366 47.8518C131.049 47.9492 130.707 47.9979 130.364 47.9979C129.533 47.9979 128.898 47.7787 128.434 47.3403C127.969 46.9019 127.749 46.2686 127.749 45.4405V40.9344H126.356V39.7166H127.749V37.9142H129.24V39.7166H131.611V40.9344H129.24V45.3674C129.24 45.8058 129.362 46.1468 129.582 46.3904C129.802 46.6339 130.12 46.7557 130.535 46.7557C131 46.7557 131.391 46.6339 131.708 46.366L132.173 47.4377Z" fill="#19B7CB"/>
<path d="M134.005 37.8655C133.81 37.6706 133.712 37.4514 133.712 37.1835C133.712 36.9156 133.81 36.6964 134.005 36.5015C134.201 36.3067 134.445 36.2092 134.738 36.2092C135.032 36.2092 135.276 36.3067 135.471 36.4772C135.667 36.6476 135.765 36.8912 135.765 37.1591C135.765 37.4271 135.667 37.6706 135.471 37.8655C135.276 38.0603 135.032 38.1578 134.738 38.1578C134.421 38.1334 134.201 38.0603 134.005 37.8655ZM133.981 39.7166H135.471V47.9249H133.981V39.7166Z" fill="#19B7CB"/>
<path d="M139.626 47.4865C138.966 47.1211 138.453 46.634 138.086 46.0007C137.72 45.3674 137.524 44.6367 137.524 43.8329C137.524 43.0292 137.695 42.2985 138.086 41.6652C138.453 41.0319 138.966 40.5448 139.626 40.1794C140.286 39.8141 141.019 39.6436 141.826 39.6436C142.632 39.6436 143.39 39.8141 144.025 40.1794C144.66 40.5448 145.174 41.0319 145.54 41.6652C145.907 42.2985 146.102 43.0292 146.102 43.8329C146.102 44.6367 145.931 45.3431 145.54 46.0007C145.174 46.634 144.66 47.1455 144.025 47.4865C143.39 47.8518 142.657 48.0223 141.826 48.0223C140.995 48.0223 140.286 47.8518 139.626 47.4865ZM143.267 46.3661C143.683 46.1225 144.025 45.7815 144.245 45.3431C144.489 44.9046 144.612 44.3931 144.612 43.8329C144.612 43.2727 144.489 42.7612 144.245 42.3228C144.001 41.8844 143.683 41.5434 143.267 41.2998C142.852 41.0563 142.363 40.9345 141.85 40.9345C141.337 40.9345 140.848 41.0563 140.433 41.2998C140.017 41.5434 139.675 41.8844 139.431 42.3228C139.186 42.7612 139.064 43.2727 139.064 43.8329C139.064 44.3931 139.186 44.9046 139.431 45.3431C139.675 45.7815 140.017 46.1225 140.433 46.3661C140.848 46.6096 141.337 46.7314 141.85 46.7314C142.363 46.7314 142.828 46.6096 143.267 46.3661Z" fill="#19B7CB"/>
<path d="M155.071 40.5448C155.682 41.1537 156 42.0305 156 43.1997V47.9249H154.509V43.3702C154.509 42.5664 154.314 41.9818 153.923 41.5677C153.532 41.1537 152.994 40.9588 152.285 40.9588C151.479 40.9588 150.843 41.2024 150.379 41.6652C149.915 42.128 149.67 42.8099 149.67 43.6868V47.9249H148.18V39.7166H149.597V40.9588C149.89 40.5448 150.306 40.2038 150.819 39.9846C151.332 39.7653 151.919 39.6436 152.579 39.6436C153.605 39.6436 154.436 39.9358 155.071 40.5448Z" fill="#19B7CB"/>
<defs>
<linearGradient id="paint0_linear_4_947" x1="4.59163" y1="26.3116" x2="47.9859" y2="26.3116" gradientUnits="userSpaceOnUse">
<stop stop-color="#19B7CB"/>
<stop offset="1" stop-color="#55C0D3"/>
</linearGradient>
<linearGradient id="paint1_linear_4_947" x1="0" y1="47.573" x2="8.65203" y2="47.573" gradientUnits="userSpaceOnUse">
<stop stop-color="#19B7CB"/>
<stop offset="1" stop-color="#55C0D3"/>
</linearGradient>
<linearGradient id="paint2_linear_4_947" x1="43.4065" y1="4.31156" x2="52.0585" y2="4.31156" gradientUnits="userSpaceOnUse">
<stop stop-color="#19B7CB"/>
<stop offset="1" stop-color="#55C0D3"/>
</linearGradient>
</defs>
</svg>
